<svg height="512pt" viewBox="0 -48 512.001 512" width="512pt" xmlns="http://www.w3.org/2000/svg"><path d="m348.46875 269.183594c-27.796875 0-52.042969 15.460937-64.621094 38.226562-7.097656-1.996094-16.5625-3.691406-28.257812-3.691406-11.316406 0-20.535156 1.585938-27.550782 3.496094-12.605468-22.65625-36.789062-38.027344-64.507812-38.027344-40.679688 0-73.777344 33.097656-73.777344 73.777344 0 40.683594 33.097656 73.78125 73.777344 73.78125 40.683594 0 73.777344-33.097656 73.777344-73.78125 0-2.382813-.121094-4.738282-.34375-7.066406 4.589844-1.160157 10.824218-2.179688 18.625-2.179688 8.277344 0 14.777344 1.144531 19.429687 2.394531-.207031 2.257813-.328125 4.542969-.328125 6.851563 0 40.683594 33.097656 73.78125 73.777344 73.78125s73.777344-33.097656 73.777344-73.78125c0-40.679688-33.097656-73.78125-73.777344-73.78125zm-184.9375 117.558594c-24.140625 0-43.777344-19.636719-43.777344-43.777344s19.636719-43.78125 43.777344-43.78125 43.777344 19.640625 43.777344 43.78125-19.636719 43.777344-43.777344 43.777344zm184.9375 0c-24.140625 0-43.777344-19.636719-43.777344-43.777344s19.636719-43.78125 43.777344-43.78125 43.777344 19.640625 43.777344 43.78125-19.636719 43.777344-43.777344 43.777344zm0 0"/><path d="m472.316406 174.378906h-49.050781c-4.003906-22.382812-12.488281-69.613281-17.332031-94.949218-6.535156-34.21875-13.878906-56.601563-32.0625-69.734376-19.898438-14.375-50.855469-12.566406-70.472656 4.121094-1.222657 1.039063-2.488282 2.132813-3.796876 3.261719-12.105468 10.460937-27.175781 23.476563-43.601562 23.476563-16.429688 0-31.496094-13.015626-43.605469-23.476563-1.304687-1.128906-2.570312-2.222656-3.792969-3.261719-19.621093-16.6875-50.574218-18.496094-70.476562-4.121094-18.183594 13.132813-25.523438 35.515626-32.0625 69.734376-4.839844 25.335937-13.328125 72.566406-17.328125 94.949218h-49.050781c-21.878906 0-39.683594 17.804688-39.683594 39.6875v.335938c0 21.882812 17.804688 39.6875 39.683594 39.6875h432.632812c21.882813 0 39.683594-17.804688 39.683594-39.6875v-.335938c0-21.882812-17.804688-39.6875-39.683594-39.6875zm-336.785156-89.320312c5.894531-30.851563 11.359375-44.6875 20.160156-51.046875 7.765625-5.605469 23.417969-5.894531 33.472656 2.65625 1.167969.992187 2.371094 2.035156 3.617188 3.109375 14.1875 12.257812 35.625 30.777344 63.21875 30.777344s49.03125-18.519532 63.21875-30.777344c1.246094-1.074219 2.449219-2.117188 3.617188-3.109375 10.054687-8.550781 25.710937-8.261719 33.472656-2.65625 8.800781 6.359375 14.265625 20.195312 20.160156 51.046875 1.871094 9.785156 4.289062 22.875 6.785156 36.53125h-254.507812c2.496094-13.65625 4.914062-26.742188 6.785156-36.53125zm-12.222656 66.53125h265.382812c1.527344 8.457031 2.933594 16.300781 4.09375 22.789062h-273.574218c1.164062-6.488281 2.570312-14.332031 4.097656-22.789062zm358.691406 62.8125c0 5.339844-4.34375 9.6875-9.683594 9.6875h-432.632812c-5.339844 0-9.683594-4.347656-9.683594-9.6875v-.335938c0-5.34375 4.34375-9.6875 9.683594-9.6875h370.949218c.019532 0 .035157.003906.054688.003906s.039062-.003906.054688-.003906h61.574218c5.339844 0 9.683594 4.34375 9.683594 9.6875zm0 0"/></svg>