<svg xmlns="http://www.w3.org/2000/svg" xmlns:xlink="http://www.w3.org/1999/xlink" width="500" zoomAndPan="magnify" viewBox="0 0 375 374.999991" height="500" preserveAspectRatio="xMidYMid meet" version="1.0"><defs><g/></defs><g fill="#000000" fill-opacity="1"><g transform="translate(9.879527, 189.097307)"><g><path d="M 23.859375 -22.640625 L 23.859375 -23.296875 C 23.859375 -28.734375 21.835938 -31.453125 17.796875 -31.453125 C 15.484375 -31.453125 13.8125 -30.394531 12.78125 -28.28125 C 11.75 -26.175781 11.234375 -23.066406 11.234375 -18.953125 C 11.234375 -14.878906 11.875 -11.847656 13.15625 -9.859375 C 14.445312 -7.878906 16.320312 -6.890625 18.78125 -6.890625 C 20.070312 -6.890625 21.492188 -7.191406 23.046875 -7.796875 C 24.609375 -8.398438 26.3125 -9.363281 28.15625 -10.6875 C 29.070312 -10.0625 29.925781 -9.207031 30.71875 -8.125 C 31.507812 -7.039062 31.992188 -6.003906 32.171875 -5.015625 C 31.328125 -4.203125 30.34375 -3.4375 29.21875 -2.71875 C 28.101562 -2.007812 26.894531 -1.394531 25.59375 -0.875 C 24.289062 -0.363281 22.929688 0.046875 21.515625 0.359375 C 20.097656 0.671875 18.675781 0.828125 17.25 0.828125 C 14.414062 0.828125 12.023438 0.285156 10.078125 -0.796875 C 8.128906 -1.878906 6.554688 -3.320312 5.359375 -5.125 C 4.171875 -6.925781 3.3125 -9 2.78125 -11.34375 C 2.25 -13.695312 1.984375 -16.140625 1.984375 -18.671875 C 1.984375 -21.984375 2.394531 -24.878906 3.21875 -27.359375 C 4.050781 -29.835938 5.171875 -31.898438 6.578125 -33.546875 C 7.992188 -35.203125 9.65625 -36.441406 11.5625 -37.265625 C 13.476562 -38.097656 15.519531 -38.515625 17.6875 -38.515625 C 19.882812 -38.515625 21.882812 -38.21875 23.6875 -37.625 C 25.488281 -37.039062 27.019531 -36.234375 28.28125 -35.203125 C 29.550781 -34.171875 30.523438 -32.957031 31.203125 -31.5625 C 31.890625 -30.164062 32.234375 -28.660156 32.234375 -27.046875 C 32.234375 -23.773438 30.5625 -22.140625 27.21875 -22.140625 C 26.226562 -22.140625 25.109375 -22.304688 23.859375 -22.640625 Z M 23.859375 -22.640625 "/></g></g></g><g fill="#000000" fill-opacity="1"><g transform="translate(43.436291, 189.097307)"><g><path d="M 12.34375 -10.25 C 13.332031 -7.382812 15.332031 -5.953125 18.34375 -5.953125 C 19.851562 -5.953125 21.078125 -6.328125 22.015625 -7.078125 C 22.953125 -7.828125 23.6875 -8.78125 24.21875 -9.9375 C 24.75 -11.101562 25.101562 -12.398438 25.28125 -13.828125 C 25.46875 -15.265625 25.5625 -16.679688 25.5625 -18.078125 C 25.5625 -19.359375 25.515625 -20.785156 25.421875 -22.359375 C 25.328125 -23.941406 25.0625 -25.421875 24.625 -26.796875 C 24.1875 -28.179688 23.488281 -29.335938 22.53125 -30.265625 C 21.570312 -31.203125 20.175781 -31.671875 18.34375 -31.671875 C 16.582031 -31.671875 15.234375 -31.222656 14.296875 -30.328125 C 13.359375 -29.429688 12.660156 -28.320312 12.203125 -27 C 11.742188 -25.675781 11.457031 -24.269531 11.34375 -22.78125 C 11.238281 -21.289062 11.1875 -19.976562 11.1875 -18.84375 C 11.1875 -17.15625 11.269531 -15.648438 11.4375 -14.328125 C 11.601562 -13.003906 11.90625 -11.644531 12.34375 -10.25 Z M 7.875 -2.640625 C 3.945312 -5.910156 1.984375 -11.289062 1.984375 -18.78125 C 1.984375 -22.019531 2.359375 -24.859375 3.109375 -27.296875 C 3.867188 -29.742188 4.953125 -31.789062 6.359375 -33.4375 C 7.773438 -35.09375 9.492188 -36.34375 11.515625 -37.1875 C 13.535156 -38.03125 15.8125 -38.453125 18.34375 -38.453125 C 20.875 -38.453125 23.160156 -38.03125 25.203125 -37.1875 C 27.242188 -36.34375 28.96875 -35.082031 30.375 -33.40625 C 31.789062 -31.738281 32.875 -29.679688 33.625 -27.234375 C 34.382812 -24.796875 34.765625 -21.976562 34.765625 -18.78125 C 34.765625 -15.59375 34.382812 -12.773438 33.625 -10.328125 C 32.875 -7.890625 31.789062 -5.84375 30.375 -4.1875 C 28.96875 -2.53125 27.242188 -1.28125 25.203125 -0.4375 C 23.160156 0.40625 20.875 0.828125 18.34375 0.828125 C 14.15625 0.828125 10.664062 -0.328125 7.875 -2.640625 Z M 7.875 -2.640625 "/></g></g></g><g fill="#000000" fill-opacity="1"><g transform="translate(80.188937, 189.097307)"><g><path d="M 33.828125 -38.015625 L 34.21875 -37.625 L 34.21875 -0.171875 C 32.75 0.160156 31.007812 0.328125 29 0.328125 C 27 0.328125 25.226562 0.21875 23.6875 0 L 15.046875 -19.71875 C 14.015625 -21.957031 12.96875 -24.546875 11.90625 -27.484375 L 11.734375 -27.4375 C 12.171875 -22.070312 12.390625 -16.582031 12.390625 -10.96875 L 12.390625 0 C 11.253906 0.21875 9.878906 0.328125 8.265625 0.328125 C 6.648438 0.328125 5.289062 0.21875 4.1875 0 L 4.1875 -37.46875 C 5.582031 -37.789062 7.257812 -37.953125 9.21875 -37.953125 C 11.1875 -37.953125 12.941406 -37.84375 14.484375 -37.625 L 23.03125 -17.953125 C 24.570312 -14.316406 25.707031 -11.53125 26.4375 -9.59375 L 26.671875 -9.703125 C 26.222656 -14.804688 26 -20.222656 26 -25.953125 L 26 -32.671875 C 26 -34.578125 26.382812 -35.941406 27.15625 -36.765625 C 27.925781 -37.597656 29.175781 -38.015625 30.90625 -38.015625 Z M 33.828125 -38.015625 "/></g></g></g><g fill="#000000" fill-opacity="1"><g transform="translate(118.539531, 189.097307)"><g><path d="M 12.953125 -30.140625 L 13 -25.84375 L 13 -22.375 L 24.796875 -22.375 C 25.085938 -21.269531 25.234375 -20.0625 25.234375 -18.75 C 25.234375 -17.445312 25.085938 -16.25 24.796875 -15.15625 L 13 -15.15625 L 13 0 C 11.820312 0.21875 10.351562 0.328125 8.59375 0.328125 C 6.832031 0.328125 5.363281 0.21875 4.1875 0 L 4.1875 -37.296875 L 4.578125 -37.625 L 28.15625 -37.625 C 28.375 -36.707031 28.484375 -35.5625 28.484375 -34.1875 C 28.484375 -32.8125 28.101562 -31.789062 27.34375 -31.125 C 26.59375 -30.46875 25.410156 -30.140625 23.796875 -30.140625 Z M 12.953125 -30.140625 "/></g></g></g><g fill="#000000" fill-opacity="1"><g transform="translate(148.018798, 189.097307)"><g><path d="M 12.84375 -11.125 L 12.78125 -7.15625 L 12.78125 -7.109375 C 14.46875 -7.179688 15.828125 -7.21875 16.859375 -7.21875 L 29.640625 -7.21875 C 29.640625 -5.851562 29.582031 -4.804688 29.46875 -4.078125 C 29.03125 -1.242188 27.160156 0.171875 23.859375 0.171875 L 9.203125 0.171875 C 7.617188 0.171875 6.375 -0.285156 5.46875 -1.203125 C 4.570312 -2.128906 4.125 -3.378906 4.125 -4.953125 L 4.125 -37.25 L 4.515625 -37.625 L 28.265625 -37.625 C 28.484375 -36.5625 28.59375 -35.40625 28.59375 -34.15625 C 28.59375 -32.90625 28.335938 -31.601562 27.828125 -30.25 L 12.78125 -30.25 L 12.84375 -26.28125 L 12.84375 -22.421875 C 13.789062 -22.460938 15.035156 -22.484375 16.578125 -22.484375 L 25.015625 -22.484375 C 25.347656 -21.453125 25.515625 -20.273438 25.515625 -18.953125 C 25.515625 -17.628906 25.347656 -16.414062 25.015625 -15.3125 L 12.84375 -15.3125 Z M 12.84375 -11.125 "/></g></g></g><g fill="#000000" fill-opacity="1"><g transform="translate(179.59192, 189.097307)"><g><path d="M 0.828125 -3.25 C 0.929688 -4.457031 1.304688 -5.664062 1.953125 -6.875 C 2.597656 -8.09375 3.363281 -9.085938 4.25 -9.859375 C 8.175781 -7.472656 11.898438 -6.28125 15.421875 -6.28125 C 16.960938 -6.28125 18.09375 -6.628906 18.8125 -7.328125 C 19.53125 -8.023438 19.890625 -8.890625 19.890625 -9.921875 C 19.890625 -11.640625 18.734375 -13 16.421875 -14 L 9.921875 -16.75 C 7.378906 -17.882812 5.425781 -19.25 4.0625 -20.84375 C 2.707031 -22.445312 2.03125 -24.476562 2.03125 -26.9375 C 2.03125 -28.625 2.367188 -30.164062 3.046875 -31.5625 C 3.734375 -32.957031 4.691406 -34.171875 5.921875 -35.203125 C 7.148438 -36.234375 8.609375 -37.03125 10.296875 -37.59375 C 11.992188 -38.164062 13.867188 -38.453125 15.921875 -38.453125 C 20.035156 -38.453125 24.1875 -37.40625 28.375 -35.3125 C 28.1875 -32.488281 27.191406 -30.285156 25.390625 -28.703125 C 21.648438 -30.503906 18.347656 -31.40625 15.484375 -31.40625 C 14.015625 -31.40625 12.910156 -31.070312 12.171875 -30.40625 C 11.441406 -29.75 11.078125 -29 11.078125 -28.15625 C 11.078125 -26.71875 12.160156 -25.5625 14.328125 -24.6875 L 20.9375 -21.875 C 23.726562 -20.695312 25.8125 -19.1875 27.1875 -17.34375 C 28.5625 -15.507812 29.25 -13.382812 29.25 -10.96875 C 29.25 -9.238281 28.9375 -7.65625 28.3125 -6.21875 C 27.6875 -4.789062 26.757812 -3.550781 25.53125 -2.5 C 24.300781 -1.457031 22.769531 -0.640625 20.9375 -0.046875 C 19.101562 0.535156 16.953125 0.828125 14.484375 0.828125 C 9.710938 0.828125 5.160156 -0.53125 0.828125 -3.25 Z M 0.828125 -3.25 "/></g></g></g><g fill="#000000" fill-opacity="1"><g transform="translate(210.283412, 189.097307)"><g><path d="M 4.296875 0 L 4.296875 -37.625 C 5.429688 -37.84375 6.898438 -37.953125 8.703125 -37.953125 C 10.503906 -37.953125 11.992188 -37.84375 13.171875 -37.625 L 13.171875 0 C 11.992188 0.21875 10.503906 0.328125 8.703125 0.328125 C 6.898438 0.328125 5.429688 0.21875 4.296875 0 Z M 4.296875 0 "/></g></g></g><g fill="#000000" fill-opacity="1"><g transform="translate(227.750556, 189.097307)"><g><path d="M 12.34375 -10.25 C 13.332031 -7.382812 15.332031 -5.953125 18.34375 -5.953125 C 19.851562 -5.953125 21.078125 -6.328125 22.015625 -7.078125 C 22.953125 -7.828125 23.6875 -8.78125 24.21875 -9.9375 C 24.75 -11.101562 25.101562 -12.398438 25.28125 -13.828125 C 25.46875 -15.265625 25.5625 -16.679688 25.5625 -18.078125 C 25.5625 -19.359375 25.515625 -20.785156 25.421875 -22.359375 C 25.328125 -23.941406 25.0625 -25.421875 24.625 -26.796875 C 24.1875 -28.179688 23.488281 -29.335938 22.53125 -30.265625 C 21.570312 -31.203125 20.175781 -31.671875 18.34375 -31.671875 C 16.582031 -31.671875 15.234375 -31.222656 14.296875 -30.328125 C 13.359375 -29.429688 12.660156 -28.320312 12.203125 -27 C 11.742188 -25.675781 11.457031 -24.269531 11.34375 -22.78125 C 11.238281 -21.289062 11.1875 -19.976562 11.1875 -18.84375 C 11.1875 -17.15625 11.269531 -15.648438 11.4375 -14.328125 C 11.601562 -13.003906 11.90625 -11.644531 12.34375 -10.25 Z M 7.875 -2.640625 C 3.945312 -5.910156 1.984375 -11.289062 1.984375 -18.78125 C 1.984375 -22.019531 2.359375 -24.859375 3.109375 -27.296875 C 3.867188 -29.742188 4.953125 -31.789062 6.359375 -33.4375 C 7.773438 -35.09375 9.492188 -36.34375 11.515625 -37.1875 C 13.535156 -38.03125 15.8125 -38.453125 18.34375 -38.453125 C 20.875 -38.453125 23.160156 -38.03125 25.203125 -37.1875 C 27.242188 -36.34375 28.96875 -35.082031 30.375 -33.40625 C 31.789062 -31.738281 32.875 -29.679688 33.625 -27.234375 C 34.382812 -24.796875 34.765625 -21.976562 34.765625 -18.78125 C 34.765625 -15.59375 34.382812 -12.773438 33.625 -10.328125 C 32.875 -7.890625 31.789062 -5.84375 30.375 -4.1875 C 28.96875 -2.53125 27.242188 -1.28125 25.203125 -0.4375 C 23.160156 0.40625 20.875 0.828125 18.34375 0.828125 C 14.15625 0.828125 10.664062 -0.328125 7.875 -2.640625 Z M 7.875 -2.640625 "/></g></g></g><g fill="#000000" fill-opacity="1"><g transform="translate(264.503202, 189.097307)"><g><path d="M 33.828125 -38.015625 L 34.21875 -37.625 L 34.21875 -0.171875 C 32.75 0.160156 31.007812 0.328125 29 0.328125 C 27 0.328125 25.226562 0.21875 23.6875 0 L 15.046875 -19.71875 C 14.015625 -21.957031 12.96875 -24.546875 11.90625 -27.484375 L 11.734375 -27.4375 C 12.171875 -22.070312 12.390625 -16.582031 12.390625 -10.96875 L 12.390625 0 C 11.253906 0.21875 9.878906 0.328125 8.265625 0.328125 C 6.648438 0.328125 5.289062 0.21875 4.1875 0 L 4.1875 -37.46875 C 5.582031 -37.789062 7.257812 -37.953125 9.21875 -37.953125 C 11.1875 -37.953125 12.941406 -37.84375 14.484375 -37.625 L 23.03125 -17.953125 C 24.570312 -14.316406 25.707031 -11.53125 26.4375 -9.59375 L 26.671875 -9.703125 C 26.222656 -14.804688 26 -20.222656 26 -25.953125 L 26 -32.671875 C 26 -34.578125 26.382812 -35.941406 27.15625 -36.765625 C 27.925781 -37.597656 29.175781 -38.015625 30.90625 -38.015625 Z M 33.828125 -38.015625 "/></g></g></g><g fill="#000000" fill-opacity="1"><g transform="translate(302.853809, 189.097307)"><g><path d="M 12.84375 -11.125 L 12.78125 -7.15625 L 12.78125 -7.109375 C 14.46875 -7.179688 15.828125 -7.21875 16.859375 -7.21875 L 29.640625 -7.21875 C 29.640625 -5.851562 29.582031 -4.804688 29.46875 -4.078125 C 29.03125 -1.242188 27.160156 0.171875 23.859375 0.171875 L 9.203125 0.171875 C 7.617188 0.171875 6.375 -0.285156 5.46875 -1.203125 C 4.570312 -2.128906 4.125 -3.378906 4.125 -4.953125 L 4.125 -37.25 L 4.515625 -37.625 L 28.265625 -37.625 C 28.484375 -36.5625 28.59375 -35.40625 28.59375 -34.15625 C 28.59375 -32.90625 28.335938 -31.601562 27.828125 -30.25 L 12.78125 -30.25 L 12.84375 -26.28125 L 12.84375 -22.421875 C 13.789062 -22.460938 15.035156 -22.484375 16.578125 -22.484375 L 25.015625 -22.484375 C 25.347656 -21.453125 25.515625 -20.273438 25.515625 -18.953125 C 25.515625 -17.628906 25.347656 -16.414062 25.015625 -15.3125 L 12.84375 -15.3125 Z M 12.84375 -11.125 "/></g></g></g><g fill="#000000" fill-opacity="1"><g transform="translate(334.426931, 189.097307)"><g><path d="M 0.828125 -3.25 C 0.929688 -4.457031 1.304688 -5.664062 1.953125 -6.875 C 2.597656 -8.09375 3.363281 -9.085938 4.25 -9.859375 C 8.175781 -7.472656 11.898438 -6.28125 15.421875 -6.28125 C 16.960938 -6.28125 18.09375 -6.628906 18.8125 -7.328125 C 19.53125 -8.023438 19.890625 -8.890625 19.890625 -9.921875 C 19.890625 -11.640625 18.734375 -13 16.421875 -14 L 9.921875 -16.75 C 7.378906 -17.882812 5.425781 -19.25 4.0625 -20.84375 C 2.707031 -22.445312 2.03125 -24.476562 2.03125 -26.9375 C 2.03125 -28.625 2.367188 -30.164062 3.046875 -31.5625 C 3.734375 -32.957031 4.691406 -34.171875 5.921875 -35.203125 C 7.148438 -36.234375 8.609375 -37.03125 10.296875 -37.59375 C 11.992188 -38.164062 13.867188 -38.453125 15.921875 -38.453125 C 20.035156 -38.453125 24.1875 -37.40625 28.375 -35.3125 C 28.1875 -32.488281 27.191406 -30.285156 25.390625 -28.703125 C 21.648438 -30.503906 18.347656 -31.40625 15.484375 -31.40625 C 14.015625 -31.40625 12.910156 -31.070312 12.171875 -30.40625 C 11.441406 -29.75 11.078125 -29 11.078125 -28.15625 C 11.078125 -26.71875 12.160156 -25.5625 14.328125 -24.6875 L 20.9375 -21.875 C 23.726562 -20.695312 25.8125 -19.1875 27.1875 -17.34375 C 28.5625 -15.507812 29.25 -13.382812 29.25 -10.96875 C 29.25 -9.238281 28.9375 -7.65625 28.3125 -6.21875 C 27.6875 -4.789062 26.757812 -3.550781 25.53125 -2.5 C 24.300781 -1.457031 22.769531 -0.640625 20.9375 -0.046875 C 19.101562 0.535156 16.953125 0.828125 14.484375 0.828125 C 9.710938 0.828125 5.160156 -0.53125 0.828125 -3.25 Z M 0.828125 -3.25 "/></g></g></g><g fill="#000000" fill-opacity="1"><g transform="translate(156.640918, 242.679272)"><g><path d="M 4.890625 -22.671875 C 6.335938 -23.765625 8.300781 -24.3125 10.78125 -24.3125 C 13.269531 -24.3125 15.242188 -23.753906 16.703125 -22.640625 C 18.160156 -21.523438 18.890625 -20 18.890625 -18.0625 C 18.890625 -16.914062 18.570312 -15.894531 17.9375 -15 C 17.3125 -14.101562 16.4375 -13.398438 15.3125 -12.890625 C 16.800781 -12.410156 17.972656 -11.628906 18.828125 -10.546875 C 19.679688 -9.472656 20.109375 -8.210938 20.109375 -6.765625 C 20.109375 -4.617188 19.273438 -2.925781 17.609375 -1.6875 C 15.941406 -0.445312 13.671875 0.171875 10.796875 0.171875 C 7.941406 0.171875 5.679688 -0.441406 4.015625 -1.671875 C 2.347656 -2.898438 1.515625 -4.570312 1.515625 -6.6875 C 1.515625 -8.15625 1.957031 -9.4375 2.84375 -10.53125 C 3.726562 -11.625 4.941406 -12.410156 6.484375 -12.890625 C 3.972656 -14.046875 2.71875 -15.816406 2.71875 -18.203125 C 2.71875 -20.085938 3.441406 -21.578125 4.890625 -22.671875 Z M 10.796875 -21.375 C 9.347656 -21.375 8.210938 -21.0625 7.390625 -20.4375 C 6.578125 -19.820312 6.171875 -18.953125 6.171875 -17.828125 C 6.171875 -16.703125 6.578125 -15.832031 7.390625 -15.21875 C 8.210938 -14.613281 9.347656 -14.3125 10.796875 -14.3125 C 12.265625 -14.3125 13.398438 -14.613281 14.203125 -15.21875 C 15.015625 -15.832031 15.421875 -16.703125 15.421875 -17.828125 C 15.421875 -18.953125 15.015625 -19.820312 14.203125 -20.4375 C 13.398438 -21.0625 12.265625 -21.375 10.796875 -21.375 Z M 10.796875 -11.140625 C 9.085938 -11.140625 7.753906 -10.785156 6.796875 -10.078125 C 5.847656 -9.378906 5.375 -8.398438 5.375 -7.140625 C 5.375 -5.828125 5.84375 -4.8125 6.78125 -4.09375 C 7.726562 -3.382812 9.0625 -3.03125 10.78125 -3.03125 C 12.507812 -3.03125 13.847656 -3.382812 14.796875 -4.09375 C 15.753906 -4.8125 16.234375 -5.828125 16.234375 -7.140625 C 16.234375 -8.398438 15.753906 -9.378906 14.796875 -10.078125 C 13.847656 -10.785156 12.515625 -11.140625 10.796875 -11.140625 Z M 10.796875 -11.140625 "/></g></g></g><g fill="#000000" fill-opacity="1"><g transform="translate(181.671142, 242.679272)"><g><path d="M 17.453125 -20.484375 L 6.484375 -20.484375 L 6.484375 -15.28125 L 9.796875 -15.3125 C 12.390625 -15.3125 14.472656 -14.617188 16.046875 -13.234375 C 17.628906 -11.859375 18.421875 -10.101562 18.421875 -7.96875 C 18.421875 -5.507812 17.609375 -3.539062 15.984375 -2.0625 C 14.359375 -0.59375 12.191406 0.140625 9.484375 0.140625 C 8.054688 0.140625 6.566406 -0.109375 5.015625 -0.609375 C 3.460938 -1.117188 2.085938 -1.789062 0.890625 -2.625 L 2.515625 -5.9375 C 4.535156 -4.226562 6.707031 -3.375 9.03125 -3.375 C 10.59375 -3.375 11.820312 -3.757812 12.71875 -4.53125 C 13.613281 -5.300781 14.0625 -6.363281 14.0625 -7.71875 C 14.0625 -8.9375 13.613281 -9.898438 12.71875 -10.609375 C 11.820312 -11.328125 10.601562 -11.6875 9.0625 -11.6875 C 6.789062 -11.6875 4.675781 -11.582031 2.71875 -11.375 L 2.71875 -24.140625 L 17.421875 -24.140625 Z M 17.453125 -20.484375 "/></g></g></g><g fill="#000000" fill-opacity="1"><g transform="translate(205.012024, 242.679272)"><g><path d="M 9.234375 0 L 5.171875 0 L 5.171875 -20.515625 L 0.453125 -20.515625 L 0.453125 -24.140625 L 9.234375 -24.140625 Z M 9.234375 0 "/></g></g></g><g fill="#000000" fill-opacity="1"><g transform="translate(157.533031, 136.234328)"><g><path d="M 6.796875 -6.828125 L 2.40625 -6.828125 L 2.40625 -4.65625 L 6.34375 -4.65625 L 6.34375 -3.4375 L 2.40625 -3.4375 L 2.40625 -1.21875 L 6.9375 -1.21875 L 6.9375 0 L 1.0625 0 L 1.0625 -8.046875 L 6.796875 -8.046875 Z M 6.796875 -6.828125 "/></g></g></g><g fill="#000000" fill-opacity="1"><g transform="translate(166.211545, 136.234328)"><g><path d="M 3.703125 -8.09375 C 4.742188 -8.09375 5.679688 -7.816406 6.515625 -7.265625 L 5.953125 -6.078125 C 5.128906 -6.578125 4.34375 -6.828125 3.59375 -6.828125 C 3.1875 -6.828125 2.863281 -6.753906 2.625 -6.609375 C 2.394531 -6.460938 2.28125 -6.253906 2.28125 -5.984375 C 2.28125 -5.710938 2.382812 -5.484375 2.59375 -5.296875 C 2.8125 -5.109375 3.082031 -4.96875 3.40625 -4.875 C 3.726562 -4.789062 4.078125 -4.679688 4.453125 -4.546875 C 4.828125 -4.421875 5.175781 -4.28125 5.5 -4.125 C 5.820312 -3.976562 6.085938 -3.742188 6.296875 -3.421875 C 6.503906 -3.109375 6.609375 -2.726562 6.609375 -2.28125 C 6.609375 -1.570312 6.328125 -1.003906 5.765625 -0.578125 C 5.203125 -0.160156 4.472656 0.046875 3.578125 0.046875 C 2.972656 0.046875 2.378906 -0.0664062 1.796875 -0.296875 C 1.222656 -0.523438 0.722656 -0.835938 0.296875 -1.234375 L 0.890625 -2.40625 C 1.296875 -2.03125 1.738281 -1.738281 2.21875 -1.53125 C 2.707031 -1.332031 3.171875 -1.234375 3.609375 -1.234375 C 4.078125 -1.234375 4.441406 -1.316406 4.703125 -1.484375 C 4.972656 -1.660156 5.109375 -1.898438 5.109375 -2.203125 C 5.109375 -2.484375 5 -2.71875 4.78125 -2.90625 C 4.570312 -3.09375 4.304688 -3.226562 3.984375 -3.3125 C 3.660156 -3.40625 3.3125 -3.515625 2.9375 -3.640625 C 2.5625 -3.765625 2.210938 -3.894531 1.890625 -4.03125 C 1.566406 -4.175781 1.296875 -4.40625 1.078125 -4.71875 C 0.867188 -5.03125 0.765625 -5.410156 0.765625 -5.859375 C 0.765625 -6.535156 1.03125 -7.078125 1.5625 -7.484375 C 2.101562 -7.890625 2.816406 -8.09375 3.703125 -8.09375 Z M 3.703125 -8.09375 "/></g></g></g><g fill="#000000" fill-opacity="1"><g transform="translate(174.499755, 136.234328)"><g><path d="M 6.546875 -6.828125 L 4 -6.828125 L 4 0 L 2.640625 0 L 2.640625 -6.828125 L 0.109375 -6.828125 L 0.109375 -8.046875 L 6.546875 -8.046875 Z M 6.546875 -6.828125 "/></g></g></g><g fill="#000000" fill-opacity="1"><g transform="translate(182.294341, 136.234328)"><g/></g></g><g fill="#000000" fill-opacity="1"><g transform="translate(186.404006, 136.234328)"><g><path d="M 3.3125 -8.09375 C 4.070312 -8.09375 4.6875 -7.910156 5.15625 -7.546875 C 5.632812 -7.179688 5.875 -6.691406 5.875 -6.078125 C 5.875 -5.367188 5.382812 -4.488281 4.40625 -3.4375 L 2.3125 -1.21875 L 6.234375 -1.21875 L 6.234375 0 L 0.515625 0 L 0.515625 -0.984375 L 3.484375 -4.171875 C 4.128906 -4.835938 4.453125 -5.40625 4.453125 -5.875 C 4.453125 -6.195312 4.332031 -6.445312 4.09375 -6.625 C 3.863281 -6.8125 3.535156 -6.90625 3.109375 -6.90625 C 2.378906 -6.90625 1.648438 -6.570312 0.921875 -5.90625 L 0.375 -6.953125 C 1.320312 -7.710938 2.300781 -8.09375 3.3125 -8.09375 Z M 3.3125 -8.09375 "/></g></g></g><g fill="#000000" fill-opacity="1"><g transform="translate(194.301911, 136.234328)"><g><path d="M 3.96875 -8.078125 C 5.0625 -8.078125 5.90625 -7.722656 6.5 -7.015625 C 7.09375 -6.316406 7.390625 -5.316406 7.390625 -4.015625 C 7.390625 -2.710938 7.09375 -1.710938 6.5 -1.015625 C 5.90625 -0.316406 5.0625 0.03125 3.96875 0.03125 C 2.863281 0.03125 2.015625 -0.316406 1.421875 -1.015625 C 0.835938 -1.710938 0.546875 -2.710938 0.546875 -4.015625 C 0.546875 -5.316406 0.835938 -6.316406 1.421875 -7.015625 C 2.015625 -7.722656 2.863281 -8.078125 3.96875 -8.078125 Z M 3.96875 -7 C 2.613281 -7 1.9375 -6.003906 1.9375 -4.015625 C 1.9375 -2.023438 2.613281 -1.03125 3.96875 -1.03125 C 5.320312 -1.03125 6 -2.023438 6 -4.015625 C 6 -6.003906 5.320312 -7 3.96875 -7 Z M 3.96875 -7 "/></g></g></g><g fill="#000000" fill-opacity="1"><g transform="translate(203.382207, 136.234328)"><g><path d="M 3.3125 -8.09375 C 4.070312 -8.09375 4.6875 -7.910156 5.15625 -7.546875 C 5.632812 -7.179688 5.875 -6.691406 5.875 -6.078125 C 5.875 -5.367188 5.382812 -4.488281 4.40625 -3.4375 L 2.3125 -1.21875 L 6.234375 -1.21875 L 6.234375 0 L 0.515625 0 L 0.515625 -0.984375 L 3.484375 -4.171875 C 4.128906 -4.835938 4.453125 -5.40625 4.453125 -5.875 C 4.453125 -6.195312 4.332031 -6.445312 4.09375 -6.625 C 3.863281 -6.8125 3.535156 -6.90625 3.109375 -6.90625 C 2.378906 -6.90625 1.648438 -6.570312 0.921875 -5.90625 L 0.375 -6.953125 C 1.320312 -7.710938 2.300781 -8.09375 3.3125 -8.09375 Z M 3.3125 -8.09375 "/></g></g></g><g fill="#000000" fill-opacity="1"><g transform="translate(211.280111, 136.234328)"><g><path d="M 3.015625 -4.703125 L 3.421875 -4.65625 C 4.109375 -4.59375 4.65625 -4.367188 5.0625 -3.984375 C 5.476562 -3.609375 5.6875 -3.109375 5.6875 -2.484375 C 5.6875 -1.734375 5.421875 -1.117188 4.890625 -0.640625 C 4.359375 -0.171875 3.644531 0.0625 2.75 0.0625 C 2.257812 0.0625 1.769531 -0.015625 1.28125 -0.171875 C 0.800781 -0.328125 0.390625 -0.539062 0.046875 -0.8125 L 0.609375 -1.921875 C 1.203125 -1.359375 1.890625 -1.078125 2.671875 -1.078125 C 3.191406 -1.078125 3.601562 -1.203125 3.90625 -1.453125 C 4.207031 -1.703125 4.359375 -2.035156 4.359375 -2.453125 C 4.359375 -2.878906 4.207031 -3.207031 3.90625 -3.4375 C 3.613281 -3.664062 3.195312 -3.78125 2.65625 -3.78125 L 1.53125 -3.78125 L 1.53125 -4.578125 L 3.625 -6.828125 L 0.40625 -6.828125 L 0.40625 -8.03125 L 5.3125 -8.03125 L 5.3125 -7.171875 Z M 3.015625 -4.703125 "/></g></g></g></svg>